<?xml version="1.0" standalone="no"?>
<!DOCTYPE svg PUBLIC "-//W3C//DTD SVG 20010904//EN"
 "http://www.w3.org/TR/2001/REC-SVG-20010904/DTD/svg10.dtd">
<svg version="1.0" xmlns="http://www.w3.org/2000/svg"
 width="920.000000pt" height="512.000000pt" viewBox="0 0 920.000000 512.000000"
 preserveAspectRatio="xMidYMid meet">

<g transform="translate(0.000000,512.000000) scale(0.100000,-0.100000)"
fill="#000000" stroke="none">
<path d="M2301 4973 c-63 -22 -124 -87 -141 -148 -69 -241 144 -662 527 -1041
312 -310 685 -524 913 -524 175 0 274 98 274 273 l0 78 45 -7 c105 -14 213
-89 263 -181 74 -138 51 -301 -59 -411 -76 -75 -129 -96 -243 -97 -82 0 -103
4 -152 27 -69 32 -135 97 -166 164 -23 48 -26 51 -103 78 -43 16 -146 61 -228
101 l-149 73 -21 -22 c-21 -22 -21 -29 -21 -517 l0 -494 1108 -1107 c861 -861
1114 -1108 1138 -1112 17 -4 44 -2 60 4 17 6 367 349 852 833 868 868 845 842
828 914 -5 19 -354 375 -1109 1131 l-1102 1102 -500 0 -501 0 -49 -49 -48 -50
-61 89 c-97 142 -182 245 -306 369 -246 247 -511 428 -745 507 -102 34 -238
42 -304 17z m244 -109 c87 -22 264 -111 380 -192 249 -173 475 -403 646 -654
l69 -102 -175 -176 -176 -176 78 -37 c43 -20 108 -47 144 -61 l66 -25 37 45
c32 38 126 104 149 104 13 0 8 -109 -7 -145 -66 -157 -382 -77 -730 184 -303
227 -557 523 -691 804 -60 125 -85 210 -85 286 0 151 91 196 295 145z m2661
-1989 c49 -14 99 -56 123 -102 14 -27 14 -113 1 -147 -15 -40 -91 -117 -135
-137 -54 -25 -131 -24 -172 1 -44 27 -61 56 -78 136 -16 79 -32 96 -77 83 -36
-10 -119 -59 -166 -97 l-32 -27 199 -199 198 -198 179 95 c221 118 280 139
395 139 149 0 254 -44 345 -145 191 -213 157 -514 -96 -855 l-24 -32 99 -100
100 -100 -65 -65 -65 -65 -99 99 -99 99 -70 -59 c-82 -69 -238 -149 -352 -180
-102 -29 -241 -31 -300 -5 -151 65 -208 188 -143 313 49 96 173 159 265 134
93 -25 130 -88 119 -202 -5 -56 -3 -71 11 -84 43 -44 245 27 368 129 l30 25
-238 239 -239 239 -96 -54 c-289 -159 -472 -191 -638 -109 -136 68 -204 175
-212 333 -8 168 48 328 166 473 l61 75 -90 90 c-49 50 -89 95 -89 101 0 5 27
36 60 69 l60 59 95 -94 c72 -71 99 -92 109 -85 7 6 47 35 87 66 175 134 361
187 505 144z"/>
<path d="M4507 2408 c-60 -73 -90 -151 -95 -245 -4 -70 -1 -86 18 -120 58
-104 175 -106 383 -5 l98 47 -184 183 -184 184 -36 -44z"/>
<path d="M5585 2017 c-58 -24 -185 -86 -215 -106 -12 -9 27 -52 204 -230 l220
-220 24 32 c46 62 91 153 107 216 31 120 -11 253 -96 300 -63 36 -165 39 -244
8z"/>
</g>
</svg>
